<svg version="1.1" xmlns="http://www.w3.org/2000/svg" viewBox="0 0 3063.9175605216446 3212" width="6127.835121043289" height="6424">
  <!-- svg-source:excalidraw -->
  
  <defs>
    <style>
      @font-face {
        font-family: "Virgil";
        src: url("https://unpkg.com/@excalidraw/excalidraw@0.13.0-4d26993/dist/excalidraw-assets/Virgil.woff2");
      }
      @font-face {
        font-family: "Cascadia";
        src: url("https://unpkg.com/@excalidraw/excalidraw@0.13.0-4d26993/dist/excalidraw-assets/Cascadia.woff2");
      }
    </style>
  </defs>
  <rect x="0" y="0" width="3063.9175605216446" height="3212" fill="#f1f3f5"></rect><g stroke-linecap="round" transform="translate(1333.989314340427 2330.3604259031504) rotate(0 181.28698335721128 116.90544403891454)"><path d="M0 0 L362.57 0 L362.57 233.81 L0 233.81" stroke="none" stroke-width="0" fill="#495057"></path><path d="M0 0 C95.52 0, 191.05 0, 362.57 0 M0 0 C74.31 0, 148.61 0, 362.57 0 M362.57 0 C362.57 88.01, 362.57 176.02, 362.57 233.81 M362.57 0 C362.57 74.74, 362.57 149.48, 362.57 233.81 M362.57 233.81 C272.52 233.81, 182.47 233.81, 0 233.81 M362.57 233.81 C232.24 233.81, 101.9 233.81, 0 233.81 M0 233.81 C0 153.27, 0 72.72, 0 0 M0 233.81 C0 185.69, 0 137.56, 0 0" stroke="#495057" stroke-width="1" fill="none"></path></g><g stroke-linecap="round" transform="translate(1348.5533056600116 2315.0150842411863) rotate(0 182.70715845379732 116.94739969042325)"><path d="M0 0 L365.41 0 L365.41 233.89 L0 233.89" stroke="none" stroke-width="0" fill="#f1f3f5"></path><path d="M0 0 C98.48 0, 196.96 0, 365.41 0 M0 0 C133.77 0, 267.55 0, 365.41 0 M365.41 0 C365.41 82.2, 365.41 164.4, 365.41 233.89 M365.41 0 C365.41 70.95, 365.41 141.91, 365.41 233.89 M365.41 233.89 C278.87 233.89, 192.32 233.89, 0 233.89 M365.41 233.89 C248.23 233.89, 131.04 233.89, 0 233.89 M0 233.89 C0 161.65, 0 89.4, 0 0 M0 233.89 C0 155.86, 0 77.82, 0 0" stroke="#f1f3f5" stroke-width="1" fill="none"></path></g><g transform="translate(31.24661816184596 10) rotate(0 446 1596)"><text x="0" y="20" font-family="Cascadia, Segoe UI Emoji" font-size="20px" fill="#343a40" text-anchor="start" style="white-space: pre;" direction="ltr">--- Day 15: Beacon Exclusion Zone ---</text><text x="0" y="44" font-family="Cascadia, Segoe UI Emoji" font-size="20px" fill="#343a40" text-anchor="start" style="white-space: pre;" direction="ltr"></text><text x="0" y="68" font-family="Cascadia, Segoe UI Emoji" font-size="20px" fill="#343a40" text-anchor="start" style="white-space: pre;" direction="ltr">You feel the ground rumble again as the distress signal leads you </text><text x="0" y="92" font-family="Cascadia, Segoe UI Emoji" font-size="20px" fill="#343a40" text-anchor="start" style="white-space: pre;" direction="ltr">to a large network of subterranean tunnels. You don't have time to </text><text x="0" y="116" font-family="Cascadia, Segoe UI Emoji" font-size="20px" fill="#343a40" text-anchor="start" style="white-space: pre;" direction="ltr">search them all, but you don't need to: your pack contains a set </text><text x="0" y="140" font-family="Cascadia, Segoe UI Emoji" font-size="20px" fill="#343a40" text-anchor="start" style="white-space: pre;" direction="ltr">of deployable sensors that you imagine were originally built to locate </text><text x="0" y="164" font-family="Cascadia, Segoe UI Emoji" font-size="20px" fill="#343a40" text-anchor="start" style="white-space: pre;" direction="ltr">lost Elves.</text><text x="0" y="188" font-family="Cascadia, Segoe UI Emoji" font-size="20px" fill="#343a40" text-anchor="start" style="white-space: pre;" direction="ltr"></text><text x="0" y="212" font-family="Cascadia, Segoe UI Emoji" font-size="20px" fill="#343a40" text-anchor="start" style="white-space: pre;" direction="ltr">The sensors aren't very powerful, but that's okay; your handheld </text><text x="0" y="236" font-family="Cascadia, Segoe UI Emoji" font-size="20px" fill="#343a40" text-anchor="start" style="white-space: pre;" direction="ltr">device indicates that you're close enough to the source of the </text><text x="0" y="260" font-family="Cascadia, Segoe UI Emoji" font-size="20px" fill="#343a40" text-anchor="start" style="white-space: pre;" direction="ltr">distress signal to use them. You pull the emergency sensor system out </text><text x="0" y="284" font-family="Cascadia, Segoe UI Emoji" font-size="20px" fill="#343a40" text-anchor="start" style="white-space: pre;" direction="ltr">of your pack, hit the big button on top, and the sensors zoom off </text><text x="0" y="308" font-family="Cascadia, Segoe UI Emoji" font-size="20px" fill="#343a40" text-anchor="start" style="white-space: pre;" direction="ltr">down the tunnels.</text><text x="0" y="332" font-family="Cascadia, Segoe UI Emoji" font-size="20px" fill="#343a40" text-anchor="start" style="white-space: pre;" direction="ltr"></text><text x="0" y="356" font-family="Cascadia, Segoe UI Emoji" font-size="20px" fill="#343a40" text-anchor="start" style="white-space: pre;" direction="ltr">Once a sensor finds a spot it thinks will give it a good reading, it </text><text x="0" y="380" font-family="Cascadia, Segoe UI Emoji" font-size="20px" fill="#343a40" text-anchor="start" style="white-space: pre;" direction="ltr">attaches itself to a hard surface and begins monitoring for the </text><text x="0" y="404" font-family="Cascadia, Segoe UI Emoji" font-size="20px" fill="#343a40" text-anchor="start" style="white-space: pre;" direction="ltr">nearest signal source beacon. Sensors and beacons always exist at </text><text x="0" y="428" font-family="Cascadia, Segoe UI Emoji" font-size="20px" fill="#343a40" text-anchor="start" style="white-space: pre;" direction="ltr">integer coordinates. Each sensor knows its own position and can </text><text x="0" y="452" font-family="Cascadia, Segoe UI Emoji" font-size="20px" fill="#343a40" text-anchor="start" style="white-space: pre;" direction="ltr">determine the position of a beacon precisely; however, sensors can </text><text x="0" y="476" font-family="Cascadia, Segoe UI Emoji" font-size="20px" fill="#343a40" text-anchor="start" style="white-space: pre;" direction="ltr">only lock on to the one beacon closest to the sensor as measured by </text><text x="0" y="500" font-family="Cascadia, Segoe UI Emoji" font-size="20px" fill="#343a40" text-anchor="start" style="white-space: pre;" direction="ltr">the Manhattan distance. (There is never a tie where two beacons </text><text x="0" y="524" font-family="Cascadia, Segoe UI Emoji" font-size="20px" fill="#343a40" text-anchor="start" style="white-space: pre;" direction="ltr">are the same distance to a sensor.)</text><text x="0" y="548" font-family="Cascadia, Segoe UI Emoji" font-size="20px" fill="#343a40" text-anchor="start" style="white-space: pre;" direction="ltr"></text><text x="0" y="572" font-family="Cascadia, Segoe UI Emoji" font-size="20px" fill="#343a40" text-anchor="start" style="white-space: pre;" direction="ltr">It doesn't take long for the sensors to report back their positions </text><text x="0" y="596" font-family="Cascadia, Segoe UI Emoji" font-size="20px" fill="#343a40" text-anchor="start" style="white-space: pre;" direction="ltr">and closest beacons (your puzzle input). For example:</text><text x="0" y="620" font-family="Cascadia, Segoe UI Emoji" font-size="20px" fill="#343a40" text-anchor="start" style="white-space: pre;" direction="ltr"></text><text x="0" y="644" font-family="Cascadia, Segoe UI Emoji" font-size="20px" fill="#343a40" text-anchor="start" style="white-space: pre;" direction="ltr">Sensor at x=2, y=18: closest beacon is at x=-2, y=15</text><text x="0" y="668" font-family="Cascadia, Segoe UI Emoji" font-size="20px" fill="#343a40" text-anchor="start" style="white-space: pre;" direction="ltr">Sensor at x=9, y=16: closest beacon is at x=10, y=16</text><text x="0" y="692" font-family="Cascadia, Segoe UI Emoji" font-size="20px" fill="#343a40" text-anchor="start" style="white-space: pre;" direction="ltr">Sensor at x=13, y=2: closest beacon is at x=15, y=3</text><text x="0" y="716" font-family="Cascadia, Segoe UI Emoji" font-size="20px" fill="#343a40" text-anchor="start" style="white-space: pre;" direction="ltr">Sensor at x=12, y=14: closest beacon is at x=10, y=16</text><text x="0" y="740" font-family="Cascadia, Segoe UI Emoji" font-size="20px" fill="#343a40" text-anchor="start" style="white-space: pre;" direction="ltr">Sensor at x=10, y=20: closest beacon is at x=10, y=16</text><text x="0" y="764" font-family="Cascadia, Segoe UI Emoji" font-size="20px" fill="#343a40" text-anchor="start" style="white-space: pre;" direction="ltr">Sensor at x=14, y=17: closest beacon is at x=10, y=16</text><text x="0" y="788" font-family="Cascadia, Segoe UI Emoji" font-size="20px" fill="#343a40" text-anchor="start" style="white-space: pre;" direction="ltr">Sensor at x=8, y=7: closest beacon is at x=2, y=10</text><text x="0" y="812" font-family="Cascadia, Segoe UI Emoji" font-size="20px" fill="#343a40" text-anchor="start" style="white-space: pre;" direction="ltr">Sensor at x=2, y=0: closest beacon is at x=2, y=10</text><text x="0" y="836" font-family="Cascadia, Segoe UI Emoji" font-size="20px" fill="#343a40" text-anchor="start" style="white-space: pre;" direction="ltr">Sensor at x=0, y=11: closest beacon is at x=2, y=10</text><text x="0" y="860" font-family="Cascadia, Segoe UI Emoji" font-size="20px" fill="#343a40" text-anchor="start" style="white-space: pre;" direction="ltr">Sensor at x=20, y=14: closest beacon is at x=25, y=17</text><text x="0" y="884" font-family="Cascadia, Segoe UI Emoji" font-size="20px" fill="#343a40" text-anchor="start" style="white-space: pre;" direction="ltr">Sensor at x=17, y=20: closest beacon is at x=21, y=22</text><text x="0" y="908" font-family="Cascadia, Segoe UI Emoji" font-size="20px" fill="#343a40" text-anchor="start" style="white-space: pre;" direction="ltr">Sensor at x=16, y=7: closest beacon is at x=15, y=3</text><text x="0" y="932" font-family="Cascadia, Segoe UI Emoji" font-size="20px" fill="#343a40" text-anchor="start" style="white-space: pre;" direction="ltr">Sensor at x=14, y=3: closest beacon is at x=15, y=3</text><text x="0" y="956" font-family="Cascadia, Segoe UI Emoji" font-size="20px" fill="#343a40" text-anchor="start" style="white-space: pre;" direction="ltr">Sensor at x=20, y=1: closest beacon is at x=15, y=3</text><text x="0" y="980" font-family="Cascadia, Segoe UI Emoji" font-size="20px" fill="#343a40" text-anchor="start" style="white-space: pre;" direction="ltr"></text><text x="0" y="1004" font-family="Cascadia, Segoe UI Emoji" font-size="20px" fill="#343a40" text-anchor="start" style="white-space: pre;" direction="ltr">So, consider the sensor at 2,18; the closest beacon to it is at -2,15. </text><text x="0" y="1028" font-family="Cascadia, Segoe UI Emoji" font-size="20px" fill="#343a40" text-anchor="start" style="white-space: pre;" direction="ltr">For the sensor at 9,16, the closest beacon to it is at 10,16.</text><text x="0" y="1052" font-family="Cascadia, Segoe UI Emoji" font-size="20px" fill="#343a40" text-anchor="start" style="white-space: pre;" direction="ltr"></text><text x="0" y="1076" font-family="Cascadia, Segoe UI Emoji" font-size="20px" fill="#343a40" text-anchor="start" style="white-space: pre;" direction="ltr">Drawing sensors as S and beacons as B, the above arrangement of </text><text x="0" y="1100" font-family="Cascadia, Segoe UI Emoji" font-size="20px" fill="#343a40" text-anchor="start" style="white-space: pre;" direction="ltr">sensors and beacons looks like this:</text><text x="0" y="1124" font-family="Cascadia, Segoe UI Emoji" font-size="20px" fill="#343a40" text-anchor="start" style="white-space: pre;" direction="ltr"></text><text x="0" y="1148" font-family="Cascadia, Segoe UI Emoji" font-size="20px" fill="#343a40" text-anchor="start" style="white-space: pre;" direction="ltr">               1    1    2    2</text><text x="0" y="1172" font-family="Cascadia, Segoe UI Emoji" font-size="20px" fill="#343a40" text-anchor="start" style="white-space: pre;" direction="ltr">     0    5    0    5    0    5</text><text x="0" y="1196" font-family="Cascadia, Segoe UI Emoji" font-size="20px" fill="#343a40" text-anchor="start" style="white-space: pre;" direction="ltr"> 0 ....S.......................</text><text x="0" y="1220" font-family="Cascadia, Segoe UI Emoji" font-size="20px" fill="#343a40" text-anchor="start" style="white-space: pre;" direction="ltr"> 1 ......................S.....</text><text x="0" y="1244" font-family="Cascadia, Segoe UI Emoji" font-size="20px" fill="#343a40" text-anchor="start" style="white-space: pre;" direction="ltr"> 2 ...............S............</text><text x="0" y="1268" font-family="Cascadia, Segoe UI Emoji" font-size="20px" fill="#343a40" text-anchor="start" style="white-space: pre;" direction="ltr"> 3 ................SB..........</text><text x="0" y="1292" font-family="Cascadia, Segoe UI Emoji" font-size="20px" fill="#343a40" text-anchor="start" style="white-space: pre;" direction="ltr"> 4 ............................</text><text x="0" y="1316" font-family="Cascadia, Segoe UI Emoji" font-size="20px" fill="#343a40" text-anchor="start" style="white-space: pre;" direction="ltr"> 5 ............................</text><text x="0" y="1340" font-family="Cascadia, Segoe UI Emoji" font-size="20px" fill="#343a40" text-anchor="start" style="white-space: pre;" direction="ltr"> 6 ............................</text><text x="0" y="1364" font-family="Cascadia, Segoe UI Emoji" font-size="20px" fill="#343a40" text-anchor="start" style="white-space: pre;" direction="ltr"> 7 ..........S.......S.........</text><text x="0" y="1388" font-family="Cascadia, Segoe UI Emoji" font-size="20px" fill="#343a40" text-anchor="start" style="white-space: pre;" direction="ltr"> 8 ............................</text><text x="0" y="1412" font-family="Cascadia, Segoe UI Emoji" font-size="20px" fill="#343a40" text-anchor="start" style="white-space: pre;" direction="ltr"> 9 ............................</text><text x="0" y="1436" font-family="Cascadia, Segoe UI Emoji" font-size="20px" fill="#343a40" text-anchor="start" style="white-space: pre;" direction="ltr">10 ....B.......................</text><text x="0" y="1460" font-family="Cascadia, Segoe UI Emoji" font-size="20px" fill="#343a40" text-anchor="start" style="white-space: pre;" direction="ltr">11 ..S.........................</text><text x="0" y="1484" font-family="Cascadia, Segoe UI Emoji" font-size="20px" fill="#343a40" text-anchor="start" style="white-space: pre;" direction="ltr">12 ............................</text><text x="0" y="1508" font-family="Cascadia, Segoe UI Emoji" font-size="20px" fill="#343a40" text-anchor="start" style="white-space: pre;" direction="ltr">13 ............................</text><text x="0" y="1532" font-family="Cascadia, Segoe UI Emoji" font-size="20px" fill="#343a40" text-anchor="start" style="white-space: pre;" direction="ltr">14 ..............S.......S.....</text><text x="0" y="1556" font-family="Cascadia, Segoe UI Emoji" font-size="20px" fill="#343a40" text-anchor="start" style="white-space: pre;" direction="ltr">15 B...........................</text><text x="0" y="1580" font-family="Cascadia, Segoe UI Emoji" font-size="20px" fill="#343a40" text-anchor="start" style="white-space: pre;" direction="ltr">16 ...........SB...............</text><text x="0" y="1604" font-family="Cascadia, Segoe UI Emoji" font-size="20px" fill="#343a40" text-anchor="start" style="white-space: pre;" direction="ltr">17 ................S..........B</text><text x="0" y="1628" font-family="Cascadia, Segoe UI Emoji" font-size="20px" fill="#343a40" text-anchor="start" style="white-space: pre;" direction="ltr">18 ....S.......................</text><text x="0" y="1652" font-family="Cascadia, Segoe UI Emoji" font-size="20px" fill="#343a40" text-anchor="start" style="white-space: pre;" direction="ltr">19 ............................</text><text x="0" y="1676" font-family="Cascadia, Segoe UI Emoji" font-size="20px" fill="#343a40" text-anchor="start" style="white-space: pre;" direction="ltr">20 ............S......S........</text><text x="0" y="1700" font-family="Cascadia, Segoe UI Emoji" font-size="20px" fill="#343a40" text-anchor="start" style="white-space: pre;" direction="ltr">21 ............................</text><text x="0" y="1724" font-family="Cascadia, Segoe UI Emoji" font-size="20px" fill="#343a40" text-anchor="start" style="white-space: pre;" direction="ltr">22 .......................B....</text><text x="0" y="1748" font-family="Cascadia, Segoe UI Emoji" font-size="20px" fill="#343a40" text-anchor="start" style="white-space: pre;" direction="ltr"></text><text x="0" y="1772" font-family="Cascadia, Segoe UI Emoji" font-size="20px" fill="#343a40" text-anchor="start" style="white-space: pre;" direction="ltr">This isn't necessarily a comprehensive map of all beacons in the area, </text><text x="0" y="1796" font-family="Cascadia, Segoe UI Emoji" font-size="20px" fill="#343a40" text-anchor="start" style="white-space: pre;" direction="ltr">though. Because each sensor only identifies its closest beacon, if a </text><text x="0" y="1820" font-family="Cascadia, Segoe UI Emoji" font-size="20px" fill="#343a40" text-anchor="start" style="white-space: pre;" direction="ltr">sensor detects a beacon, you know there are no other beacons that </text><text x="0" y="1844" font-family="Cascadia, Segoe UI Emoji" font-size="20px" fill="#343a40" text-anchor="start" style="white-space: pre;" direction="ltr">close or closer to that sensor. There could still be beacons that</text><text x="0" y="1868" font-family="Cascadia, Segoe UI Emoji" font-size="20px" fill="#343a40" text-anchor="start" style="white-space: pre;" direction="ltr">just happen to not be the closest beacon to any sensor. Consider the </text><text x="0" y="1892" font-family="Cascadia, Segoe UI Emoji" font-size="20px" fill="#343a40" text-anchor="start" style="white-space: pre;" direction="ltr">sensor at 8,7:</text><text x="0" y="1916" font-family="Cascadia, Segoe UI Emoji" font-size="20px" fill="#343a40" text-anchor="start" style="white-space: pre;" direction="ltr"></text><text x="0" y="1940" font-family="Cascadia, Segoe UI Emoji" font-size="20px" fill="#343a40" text-anchor="start" style="white-space: pre;" direction="ltr">               1    1    2    2</text><text x="0" y="1964" font-family="Cascadia, Segoe UI Emoji" font-size="20px" fill="#343a40" text-anchor="start" style="white-space: pre;" direction="ltr">     0    5    0    5    0    5</text><text x="0" y="1988" font-family="Cascadia, Segoe UI Emoji" font-size="20px" fill="#343a40" text-anchor="start" style="white-space: pre;" direction="ltr">-2 ..........#.................</text><text x="0" y="2012" font-family="Cascadia, Segoe UI Emoji" font-size="20px" fill="#343a40" text-anchor="start" style="white-space: pre;" direction="ltr">-1 .........###................</text><text x="0" y="2036" font-family="Cascadia, Segoe UI Emoji" font-size="20px" fill="#343a40" text-anchor="start" style="white-space: pre;" direction="ltr"> 0 ....S...#####...............</text><text x="0" y="2060" font-family="Cascadia, Segoe UI Emoji" font-size="20px" fill="#343a40" text-anchor="start" style="white-space: pre;" direction="ltr"> 1 .......#######........S.....</text><text x="0" y="2084" font-family="Cascadia, Segoe UI Emoji" font-size="20px" fill="#343a40" text-anchor="start" style="white-space: pre;" direction="ltr"> 2 ......#########S............</text><text x="0" y="2108" font-family="Cascadia, Segoe UI Emoji" font-size="20px" fill="#343a40" text-anchor="start" style="white-space: pre;" direction="ltr"> 3 .....###########SB..........</text><text x="0" y="2132" font-family="Cascadia, Segoe UI Emoji" font-size="20px" fill="#343a40" text-anchor="start" style="white-space: pre;" direction="ltr"> 4 ....#############...........</text><text x="0" y="2156" font-family="Cascadia, Segoe UI Emoji" font-size="20px" fill="#343a40" text-anchor="start" style="white-space: pre;" direction="ltr"> 5 ...###############..........</text><text x="0" y="2180" font-family="Cascadia, Segoe UI Emoji" font-size="20px" fill="#343a40" text-anchor="start" style="white-space: pre;" direction="ltr"> 6 ..#################.........</text><text x="0" y="2204" font-family="Cascadia, Segoe UI Emoji" font-size="20px" fill="#343a40" text-anchor="start" style="white-space: pre;" direction="ltr"> 7 .#########S#######S#........</text><text x="0" y="2228" font-family="Cascadia, Segoe UI Emoji" font-size="20px" fill="#343a40" text-anchor="start" style="white-space: pre;" direction="ltr"> 8 ..#################.........</text><text x="0" y="2252" font-family="Cascadia, Segoe UI Emoji" font-size="20px" fill="#343a40" text-anchor="start" style="white-space: pre;" direction="ltr"> 9 ...###############..........</text><text x="0" y="2276" font-family="Cascadia, Segoe UI Emoji" font-size="20px" fill="#343a40" text-anchor="start" style="white-space: pre;" direction="ltr">10 ....B############...........</text><text x="0" y="2300" font-family="Cascadia, Segoe UI Emoji" font-size="20px" fill="#343a40" text-anchor="start" style="white-space: pre;" direction="ltr">11 ..S..###########............</text><text x="0" y="2324" font-family="Cascadia, Segoe UI Emoji" font-size="20px" fill="#343a40" text-anchor="start" style="white-space: pre;" direction="ltr">12 ......#########.............</text><text x="0" y="2348" font-family="Cascadia, Segoe UI Emoji" font-size="20px" fill="#343a40" text-anchor="start" style="white-space: pre;" direction="ltr">13 .......#######..............</text><text x="0" y="2372" font-family="Cascadia, Segoe UI Emoji" font-size="20px" fill="#343a40" text-anchor="start" style="white-space: pre;" direction="ltr">14 ........#####.S.......S.....</text><text x="0" y="2396" font-family="Cascadia, Segoe UI Emoji" font-size="20px" fill="#343a40" text-anchor="start" style="white-space: pre;" direction="ltr">15 B........###................</text><text x="0" y="2420" font-family="Cascadia, Segoe UI Emoji" font-size="20px" fill="#343a40" text-anchor="start" style="white-space: pre;" direction="ltr">16 ..........#SB...............</text><text x="0" y="2444" font-family="Cascadia, Segoe UI Emoji" font-size="20px" fill="#343a40" text-anchor="start" style="white-space: pre;" direction="ltr">17 ................S..........B</text><text x="0" y="2468" font-family="Cascadia, Segoe UI Emoji" font-size="20px" fill="#343a40" text-anchor="start" style="white-space: pre;" direction="ltr">18 ....S.......................</text><text x="0" y="2492" font-family="Cascadia, Segoe UI Emoji" font-size="20px" fill="#343a40" text-anchor="start" style="white-space: pre;" direction="ltr">19 ............................</text><text x="0" y="2516" font-family="Cascadia, Segoe UI Emoji" font-size="20px" fill="#343a40" text-anchor="start" style="white-space: pre;" direction="ltr">20 ............S......S........</text><text x="0" y="2540" font-family="Cascadia, Segoe UI Emoji" font-size="20px" fill="#343a40" text-anchor="start" style="white-space: pre;" direction="ltr">21 ............................</text><text x="0" y="2564" font-family="Cascadia, Segoe UI Emoji" font-size="20px" fill="#343a40" text-anchor="start" style="white-space: pre;" direction="ltr">22 .......................B....</text><text x="0" y="2588" font-family="Cascadia, Segoe UI Emoji" font-size="20px" fill="#343a40" text-anchor="start" style="white-space: pre;" direction="ltr"></text><text x="0" y="2612" font-family="Cascadia, Segoe UI Emoji" font-size="20px" fill="#343a40" text-anchor="start" style="white-space: pre;" direction="ltr">This sensor's closest beacon is at 2,10, and so you know there are </text><text x="0" y="2636" font-family="Cascadia, Segoe UI Emoji" font-size="20px" fill="#343a40" text-anchor="start" style="white-space: pre;" direction="ltr">no beacons that close or closer (in any positions marked #).</text><text x="0" y="2660" font-family="Cascadia, Segoe UI Emoji" font-size="20px" fill="#343a40" text-anchor="start" style="white-space: pre;" direction="ltr"></text><text x="0" y="2684" font-family="Cascadia, Segoe UI Emoji" font-size="20px" fill="#343a40" text-anchor="start" style="white-space: pre;" direction="ltr">None of the detected beacons seem to be producing the distress signal, </text><text x="0" y="2708" font-family="Cascadia, Segoe UI Emoji" font-size="20px" fill="#343a40" text-anchor="start" style="white-space: pre;" direction="ltr">so you'll need to work out where the distress beacon is by working out </text><text x="0" y="2732" font-family="Cascadia, Segoe UI Emoji" font-size="20px" fill="#343a40" text-anchor="start" style="white-space: pre;" direction="ltr">where it isn't. For now, keep things simple by counting the positions where </text><text x="0" y="2756" font-family="Cascadia, Segoe UI Emoji" font-size="20px" fill="#343a40" text-anchor="start" style="white-space: pre;" direction="ltr">a beacon cannot possibly be along just a single row.</text><text x="0" y="2780" font-family="Cascadia, Segoe UI Emoji" font-size="20px" fill="#343a40" text-anchor="start" style="white-space: pre;" direction="ltr"></text><text x="0" y="2804" font-family="Cascadia, Segoe UI Emoji" font-size="20px" fill="#343a40" text-anchor="start" style="white-space: pre;" direction="ltr">So, suppose you have an arrangement of beacons and sensors like in </text><text x="0" y="2828" font-family="Cascadia, Segoe UI Emoji" font-size="20px" fill="#343a40" text-anchor="start" style="white-space: pre;" direction="ltr">the example above and, just in the row where y=10, you'd like to count </text><text x="0" y="2852" font-family="Cascadia, Segoe UI Emoji" font-size="20px" fill="#343a40" text-anchor="start" style="white-space: pre;" direction="ltr">the number of positions a beacon cannot possibly exist. The coverage </text><text x="0" y="2876" font-family="Cascadia, Segoe UI Emoji" font-size="20px" fill="#343a40" text-anchor="start" style="white-space: pre;" direction="ltr">from all sensors near that row looks like this:</text><text x="0" y="2900" font-family="Cascadia, Segoe UI Emoji" font-size="20px" fill="#343a40" text-anchor="start" style="white-space: pre;" direction="ltr"></text><text x="0" y="2924" font-family="Cascadia, Segoe UI Emoji" font-size="20px" fill="#343a40" text-anchor="start" style="white-space: pre;" direction="ltr">                 1    1    2    2</text><text x="0" y="2948" font-family="Cascadia, Segoe UI Emoji" font-size="20px" fill="#343a40" text-anchor="start" style="white-space: pre;" direction="ltr">       0    5    0    5    0    5</text><text x="0" y="2972" font-family="Cascadia, Segoe UI Emoji" font-size="20px" fill="#343a40" text-anchor="start" style="white-space: pre;" direction="ltr"> 9 ...#########################...</text><text x="0" y="2996" font-family="Cascadia, Segoe UI Emoji" font-size="20px" fill="#343a40" text-anchor="start" style="white-space: pre;" direction="ltr">10 ..####B######################..</text><text x="0" y="3020" font-family="Cascadia, Segoe UI Emoji" font-size="20px" fill="#343a40" text-anchor="start" style="white-space: pre;" direction="ltr">11 .###S#############.###########.</text><text x="0" y="3044" font-family="Cascadia, Segoe UI Emoji" font-size="20px" fill="#343a40" text-anchor="start" style="white-space: pre;" direction="ltr"></text><text x="0" y="3068" font-family="Cascadia, Segoe UI Emoji" font-size="20px" fill="#343a40" text-anchor="start" style="white-space: pre;" direction="ltr">In this example, in the row where y=10, there are 26 positions where a </text><text x="0" y="3092" font-family="Cascadia, Segoe UI Emoji" font-size="20px" fill="#343a40" text-anchor="start" style="white-space: pre;" direction="ltr">beacon cannot be present.</text><text x="0" y="3116" font-family="Cascadia, Segoe UI Emoji" font-size="20px" fill="#343a40" text-anchor="start" style="white-space: pre;" direction="ltr"></text><text x="0" y="3140" font-family="Cascadia, Segoe UI Emoji" font-size="20px" fill="#343a40" text-anchor="start" style="white-space: pre;" direction="ltr">Consult the report from the sensors you just deployed. In the row where </text><text x="0" y="3164" font-family="Cascadia, Segoe UI Emoji" font-size="20px" fill="#343a40" text-anchor="start" style="white-space: pre;" direction="ltr">y=2000000, how many positions cannot contain a beacon?</text><text x="0" y="3188" font-family="Cascadia, Segoe UI Emoji" font-size="20px" fill="#343a40" text-anchor="start" style="white-space: pre;" direction="ltr"></text></g><g stroke-linecap="round"><g transform="translate(81.0168270901691 515.3814189001705) rotate(0 107.97709241577624 -0.115410068015251)"><path d="M1.03 0.87 C59.95 0.91, 121.54 -2.4, 213.69 0.74 M0.02 -0.12 C82.08 -0.47, 164.51 -1.58, 215.94 -0.87" stroke="#e67700" stroke-width="2" fill="none"></path></g></g><g stroke-linecap="round" transform="translate(981.9117299641401 511.43921056433555) rotate(0 31.842818925418896 25.992699462239443)"><path d="M-0.48 -1.58 C13.2 -1.5, 26.43 0.1, 63.86 0.7 M0.87 -0.19 C18.74 -0.31, 39.42 -0.84, 64.08 0.06 M62.7 0.28 C65 13.15, 65.9 29.13, 65.33 53.8 M63.62 0.11 C62.37 16.39, 63.46 31.58, 63.29 52.88 M65.4 50.04 C42.98 53.41, 19.39 50.23, 0.11 50.79 M62.76 52.44 C46.45 51.88, 30.37 51.1, -0.9 51.87 M0.09 50.59 C-1.1 37.91, -1.09 29.22, 0.61 0.65 M0.48 52.06 C-0.62 32.38, -0.03 11.49, -0.94 -0.57" stroke="#e67700" stroke-width="2" fill="none"></path></g><g stroke-linecap="round" transform="translate(1117.1340696040188 348.928060657457) rotate(0 28.847275826802843 26.20414956331811)"><path d="M15.78 2.28 C20.88 -0.64, 29.08 -0.89, 34.98 0.36 C40.88 1.6, 47.29 5.15, 51.18 9.77 C55.07 14.39, 58.62 22.46, 58.3 28.1 C57.98 33.74, 53.54 39.51, 49.25 43.61 C44.96 47.71, 38.45 52.1, 32.55 52.7 C26.66 53.3, 19.05 50.34, 13.9 47.19 C8.75 44.04, 3.64 39.18, 1.64 33.8 C-0.36 28.43, -1.13 20.31, 1.91 14.95 C4.95 9.58, 16.13 3.83, 19.86 1.59 C23.59 -0.65, 24.01 1.07, 24.29 1.5 M26.2 -0.1 C31.97 -0.98, 39.68 0.71, 44.69 4.09 C49.7 7.47, 54.56 14.84, 56.27 20.17 C57.99 25.49, 57.52 30.96, 54.96 36.04 C52.41 41.11, 46.31 47.84, 40.95 50.62 C35.59 53.4, 28.81 54.37, 22.81 52.73 C16.81 51.09, 8.61 45.39, 4.96 40.8 C1.3 36.22, 0.35 30.86, 0.88 25.24 C1.41 19.62, 3.66 11.26, 8.13 7.11 C12.61 2.95, 24.84 1.18, 27.74 0.32 C30.64 -0.54, 25.57 1.61, 25.54 1.96" stroke="#e67700" stroke-width="2" fill="none"></path></g><g transform="translate(1181.8064745932243 359.3956472933603) rotate(0 36 12)"><text x="0" y="20" font-family="Cascadia, Segoe UI Emoji" font-size="20px" fill="#e67700" text-anchor="start" style="white-space: pre;" direction="ltr">beacon</text></g><g transform="translate(1067.7291450612233 523.6571341480576) rotate(0 36 12)"><text x="0" y="20" font-family="Cascadia, Segoe UI Emoji" font-size="20px" fill="#e67700" text-anchor="start" style="white-space: pre;" direction="ltr">sensor</text></g><g stroke-linecap="round"><g transform="translate(1045.1397533008567 507.71142359716896) rotate(0 37.69853366585312 -57.4426377242703)"><path d="M-0.81 0.35 C26.35 -41.98, 53.7 -83.19, 76.08 -115.77 M0.55 0.88 C23.86 -35.45, 48.92 -71.73, 76.21 -113.84" stroke="#e67700" stroke-width="2" fill="none"></path></g><g transform="translate(1045.1397533008567 507.71142359716896) rotate(0 37.69853366585312 -57.4426377242703)"><path d="M68.49 -84.29 C70.39 -95.67, 72.65 -105.59, 76.9 -114.97 M69.85 -83.76 C71.04 -93.43, 74.32 -102.53, 77.04 -113.04" stroke="#e67700" stroke-width="2" fill="none"></path></g><g transform="translate(1045.1397533008567 507.71142359716896) rotate(0 37.69853366585312 -57.4426377242703)"><path d="M51.34 -95.56 C59.49 -102.73, 68.04 -108.52, 76.9 -114.97 M52.7 -95.03 C59.31 -100.98, 68.04 -106.5, 77.04 -113.04" stroke="#e67700" stroke-width="2" fill="none"></path></g></g><g transform="translate(984.4099737509599 426.5741275546104) rotate(0 42 12)"><text x="0" y="20" font-family="Cascadia, Segoe UI Emoji" font-size="20px" fill="#e67700" text-anchor="start" style="white-space: pre;" direction="ltr">lock on</text></g><g transform="translate(1337.4454962150417 361.1420684985668) rotate(0 124 12)"><text x="0" y="20" font-family="Cascadia, Segoe UI Emoji" font-size="20px" fill="#e67700" text-anchor="start" style="white-space: pre;" direction="ltr">Manhattan Distance: ?</text></g><g stroke-linecap="round"><g transform="translate(326.6438648945342 512.5058878229577) rotate(0 221.54932918375863 1.8202485018599077)"><path d="M-0.81 -0.2 C162.07 -0.44, 324.15 1.02, 443.03 3.87 M-0.25 0.28 C90.48 -0.5, 181.02 0.12, 443.91 3.44" stroke="#e67700" stroke-width="2" fill="none"></path></g></g><g stroke-linecap="round"><g transform="translate(33.21331848240584 541.0442809659359) rotate(0 197.06147021881083 0.6534105731718682)"><path d="M-0.64 0.81 C107.32 -1.26, 217.51 -0.68, 394.56 1.42 M0.01 0.4 C103.33 1.64, 207.75 2.34, 394.76 1.23" stroke="#e67700" stroke-width="2" fill="none"></path></g></g><g stroke-linecap="round" transform="translate(103.59056547324826 1615.0537112030493) rotate(0 15.316484156125568 14.67283592404658)"><path d="M7.48 1.54 C9.98 0.21, 14.47 -0.13, 17.94 0.71 C21.4 1.56, 26.06 4.1, 28.26 6.62 C30.47 9.15, 31.49 12.78, 31.15 15.88 C30.82 18.97, 28.68 23.03, 26.25 25.17 C23.82 27.31, 19.73 28.31, 16.57 28.72 C13.42 29.12, 9.82 29.04, 7.31 27.6 C4.81 26.16, 2.49 23.27, 1.52 20.1 C0.56 16.92, 0.44 11.81, 1.54 8.55 C2.64 5.29, 6.81 1.8, 8.12 0.52 C9.44 -0.77, 9.17 0.64, 9.42 0.84 M9.5 -0.03 C12.13 -1.22, 17.09 -1.26, 20.31 0 C23.53 1.26, 27.36 4.53, 28.83 7.51 C30.29 10.48, 29.6 14.98, 29.11 17.85 C28.61 20.71, 28.08 22.54, 25.85 24.68 C23.62 26.82, 19 30.64, 15.73 30.69 C12.46 30.73, 8.78 27.35, 6.24 24.96 C3.71 22.57, 1.04 19.14, 0.52 16.34 C0.01 13.54, 1.74 10.57, 3.15 8.17 C4.56 5.77, 7.82 3.14, 8.97 1.94 C10.13 0.74, 10.01 0.96, 10.08 0.95" stroke="#e67700" stroke-width="2" fill="none"></path></g><g stroke-linecap="round" transform="translate(58.78441692550217 1546.5877496719593) rotate(0 13.653918577898793 13.457542833977527)"><path d="M14.49 -0.6 C17.26 -0.98, 21.25 0.84, 23.24 2.89 C25.23 4.94, 26.08 8.83, 26.44 11.7 C26.8 14.58, 26.63 17.64, 25.38 20.14 C24.13 22.65, 21.68 25.84, 18.93 26.74 C16.18 27.64, 11.69 26.54, 8.89 25.55 C6.08 24.56, 3.56 23.02, 2.1 20.79 C0.64 18.56, -0.41 15.15, 0.12 12.17 C0.66 9.19, 2.83 5.08, 5.32 2.9 C7.81 0.72, 13.45 -0.5, 15.05 -0.92 C16.64 -1.33, 15.11 0.1, 14.89 0.41 M12.06 -0.42 C14.74 -0.77, 18.58 2.18, 20.92 3.91 C23.26 5.63, 25.29 7.24, 26.11 9.92 C26.92 12.6, 27.18 17.11, 25.81 19.99 C24.43 22.86, 20.41 26.2, 17.85 27.16 C15.3 28.11, 13.15 26.73, 10.47 25.71 C7.8 24.7, 3.42 23.44, 1.8 21.07 C0.19 18.69, 0.51 14.26, 0.8 11.47 C1.09 8.67, 1.55 6.43, 3.55 4.29 C5.55 2.16, 11.09 -0.43, 12.79 -1.33 C14.5 -2.23, 13.94 -1.46, 13.78 -1.13" stroke="#e67700" stroke-width="2" fill="none"></path></g><g stroke-linecap="round" transform="translate(191.1214124966579 1573.764655460492) rotate(0 10.3331589026794 10.6386299146709)"><path d="M12.55 0.71 C14.64 1.01, 16.69 1.92, 18.1 3.64 C19.52 5.36, 21.19 8.56, 21.02 11.02 C20.86 13.49, 18.82 16.84, 17.12 18.42 C15.42 20, 12.96 20.26, 10.84 20.5 C8.71 20.73, 6.18 20.76, 4.39 19.82 C2.6 18.89, 0.73 17.01, 0.07 14.9 C-0.59 12.8, -0.4 9.49, 0.41 7.19 C1.23 4.9, 2.78 2.28, 4.95 1.13 C7.11 -0.02, 11.58 0.36, 13.38 0.31 C15.19 0.27, 15.75 0.51, 15.77 0.86 M14.18 0.41 C16.67 0.92, 19.33 1.7, 20.46 3.79 C21.6 5.88, 21.76 10.53, 20.98 12.93 C20.21 15.32, 17.58 16.61, 15.82 18.15 C14.05 19.69, 12.24 21.86, 10.38 22.17 C8.53 22.49, 6.45 21.37, 4.69 20.02 C2.93 18.68, 0.36 16.74, -0.16 14.13 C-0.69 11.51, 0.46 6.51, 1.54 4.33 C2.61 2.16, 4.44 1.91, 6.27 1.06 C8.11 0.22, 11.51 -0.47, 12.53 -0.72 C13.55 -0.96, 12.36 -0.69, 12.37 -0.41" stroke="#e67700" stroke-width="2" fill="none"></path></g><g stroke-linecap="round" transform="translate(204.91498054615113 1567.991544529193) rotate(0 12.905550110146493 15.410284566620135)"><path d="M16.08 -0.02 C18.5 0.89, 22.38 4.3, 24.07 7.19 C25.77 10.07, 26.73 14.11, 26.25 17.3 C25.77 20.48, 23.4 24.11, 21.19 26.28 C18.98 28.44, 15.86 30.16, 13 30.27 C10.14 30.38, 6.07 29.04, 4.04 26.95 C2.02 24.86, 1.19 20.82, 0.85 17.7 C0.5 14.58, 0.67 10.85, 1.96 8.2 C3.26 5.55, 5.8 2.89, 8.62 1.8 C11.45 0.71, 16.86 1.4, 18.92 1.66 C20.97 1.91, 21.11 3.17, 20.94 3.32 M15.53 1.42 C17.86 2.27, 20.27 4.96, 22.19 7.56 C24.1 10.17, 27.08 13.92, 27.03 17.04 C26.98 20.16, 23.96 24.22, 21.89 26.28 C19.82 28.35, 17.23 28.99, 14.62 29.41 C12 29.83, 8.63 30.25, 6.22 28.82 C3.82 27.39, 0.81 24.02, 0.19 20.82 C-0.43 17.62, 1.29 12.75, 2.51 9.63 C3.73 6.5, 5.45 3.37, 7.53 2.06 C9.6 0.75, 13.43 1.83, 14.97 1.76 C16.51 1.69, 16.6 1.61, 16.78 1.63" stroke="#e67700" stroke-width="2" fill="none"></path></g><g stroke-linecap="round" transform="translate(173.6579877266787 2197.2151243401454) rotate(0 16.357209192166806 10.363713106203932)"><path d="M19.96 -0.64 C23.46 -0.53, 26.87 1.69, 29.13 3.37 C31.39 5.04, 33.67 7.09, 33.54 9.39 C33.41 11.7, 30.65 15.18, 28.37 17.2 C26.08 19.22, 23.21 21.25, 19.82 21.5 C16.42 21.76, 11.22 20.13, 7.99 18.73 C4.75 17.34, 1.52 14.95, 0.43 13.13 C-0.66 11.31, 0.15 9.86, 1.43 7.82 C2.71 5.78, 4.69 2.29, 8.12 0.91 C11.54 -0.47, 19.56 -0.65, 21.99 -0.47 C24.41 -0.29, 22.78 1.6, 22.68 1.96 M18.1 -1.31 C21.47 -1.11, 26.75 1.47, 29.01 3.23 C31.28 4.98, 31.54 6.8, 31.69 9.22 C31.83 11.65, 32 16.05, 29.89 17.79 C27.77 19.52, 22.62 19.26, 19 19.64 C15.37 20.02, 10.97 20.79, 8.15 20.07 C5.32 19.34, 3.32 17.52, 2.07 15.29 C0.82 13.06, -0.39 8.87, 0.65 6.68 C1.7 4.49, 5.43 3.41, 8.33 2.14 C11.23 0.86, 16.1 -0.65, 18.04 -0.96 C19.99 -1.27, 19.68 0.13, 20.02 0.29" stroke="#e67700" stroke-width="2" fill="none"></path></g><g stroke-linecap="round" transform="translate(105.29094738263859 2269.746542112019) rotate(0 13.70191964357059 10.075699609848016)"><path d="M12.22 -0.73 C15.07 -1.06, 19.93 0.68, 22.54 1.97 C25.15 3.26, 27.47 4.85, 27.87 7.01 C28.28 9.17, 26.39 12.75, 24.98 14.9 C23.56 17.06, 21.8 19.19, 19.37 19.93 C16.94 20.66, 13.11 19.96, 10.39 19.29 C7.66 18.62, 4.89 17.76, 3.01 15.88 C1.13 14, -1.24 10.29, -0.89 8.01 C-0.53 5.74, 2.48 3.64, 5.15 2.21 C7.81 0.79, 13.06 -0.14, 15.08 -0.52 C17.11 -0.89, 17.31 -0.32, 17.27 -0.05 M13.86 -1.43 C16.62 -1.51, 19.74 -0.59, 22.07 1.34 C24.39 3.26, 27.09 7.6, 27.8 10.13 C28.52 12.66, 28.28 14.68, 26.38 16.5 C24.47 18.31, 19.48 20.64, 16.36 21.01 C13.25 21.38, 10.16 19.88, 7.69 18.71 C5.22 17.54, 2.85 15.86, 1.54 14 C0.24 12.13, -0.94 9.33, -0.15 7.52 C0.65 5.71, 4.01 4.5, 6.3 3.15 C8.59 1.79, 12.41 -0.03, 13.6 -0.59 C14.79 -1.16, 13.49 -0.43, 13.44 -0.23" stroke="#e67700" stroke-width="2" fill="none"></path></g><g stroke-linecap="round" transform="translate(1909.8835392077694 2301.144253209019) rotate(0 83.40546614193886 84.75891620227776)"><path d="M85.15 -0.29 C111.73 27.57, 141.5 57.99, 167.27 86.86 M84.05 0.08 C110.68 26.96, 138.24 54.61, 167.63 85.62 M166.02 84.58 C148.79 104.4, 130.98 120.52, 85.72 171.42 M166.02 85.88 C146.15 105.26, 123.19 127.21, 84.69 168.69 M84.75 167.97 C56.19 140.12, 27.42 112.3, 0.12 86.06 M83.78 169.11 C56.05 141.69, 27.81 114.43, -0.31 85.55 M-0.96 87 C25.83 59.33, 48.67 33.66, 82.19 -1.93 M-0.5 85.66 C31.43 53.44, 62.72 21.7, 84.19 0.96" stroke="#e67700" stroke-width="2" fill="none"></path></g><g transform="translate(1986.289005349709 2373.903169411297) rotate(0 7 12)"><text x="7" y="20" font-family="Cascadia, Segoe UI Emoji" font-size="20px" fill="#e67700" text-anchor="middle" style="white-space: pre;" direction="ltr">s</text></g><g stroke-linecap="round"><g transform="translate(1991.6009001991856 2373.1737543252298) rotate(0 1.234589958385186 -36.29051425123521)"><path d="M-0.26 0.17 C2.92 -26.72, 2.35 -52.78, 0.58 -72.81 M0.84 0.23 C0.69 -28.94, 1.56 -57.44, 2.73 -72.18" stroke="#e67700" stroke-width="2" fill="none"></path></g></g><g stroke-linecap="round"><g transform="translate(2010.7314499631316 2384.7302857733325) rotate(0 32.715288500870884 -0.09714487482301593)"><path d="M-0.97 0.61 C13.97 -1.12, 29.28 -0.45, 66.2 -0.81 M-0.22 -0.67 C25.51 -0.28, 52.15 -0.56, 66.4 0.2" stroke="#e67700" stroke-width="2" fill="none"></path></g></g><g stroke-linecap="round"><g transform="translate(1975.2865912792508 2386.97003417864) rotate(0 -32.51916337710418 -0.11203464087520842)"><path d="M-1.46 0.4 C-22.94 -2.08, -46.65 -1.29, -64.98 -0.11 M0.01 0.81 C-15.19 -0.64, -32.44 0.38, -65.05 1.01" stroke="#e67700" stroke-width="2" fill="none"></path></g></g><g stroke-linecap="round"><g transform="translate(1993.1713599945983 2406.0873396726847) rotate(0 -0.03159938543331009 33.159582728068244)"><path d="M-1.52 0.72 C-0.63 22.15, 2.43 39.35, 1.15 66.06 M-0.78 0.26 C0.7 21.54, 0.69 41.76, 0.49 64.29" stroke="#e67700" stroke-width="2" fill="none"></path></g></g><g transform="translate(2117.868361389878 2371.4465876828863) rotate(0 123.5 24)"><text x="0" y="20" font-family="Cascadia, Segoe UI Emoji" font-size="20px" fill="#495057" text-anchor="start" style="white-space: pre;" direction="ltr">manhattan distance = </text><text x="0" y="44" font-family="Cascadia, Segoe UI Emoji" font-size="20px" fill="#495057" text-anchor="start" style="white-space: pre;" direction="ltr">md(s, b) = </text></g><g transform="translate(1943.2078910563928 2411.589646194519) rotate(0 7 12)"><text x="0" y="20" font-family="Cascadia, Segoe UI Emoji" font-size="20px" fill="#e67700" text-anchor="start" style="white-space: pre;" direction="ltr">b</text></g><g transform="translate(2002.4020552830393 2336.0414833791797) rotate(0 7 12)"><text x="0" y="20" font-family="Cascadia, Segoe UI Emoji" font-size="20px" fill="#e67700" text-anchor="start" style="white-space: pre;" direction="ltr">9</text></g><g transform="translate(2026.3335018926468 2384.2952766947114) rotate(0 7 12)"><text x="0" y="20" font-family="Cascadia, Segoe UI Emoji" font-size="20px" fill="#e67700" text-anchor="start" style="white-space: pre;" direction="ltr">9</text></g><g transform="translate(1946.7564494299227 2359.6813187757803) rotate(0 7 12)"><text x="0" y="20" font-family="Cascadia, Segoe UI Emoji" font-size="20px" fill="#e67700" text-anchor="start" style="white-space: pre;" direction="ltr">9</text></g><g transform="translate(1974.4185523389583 2413.292591829882) rotate(0 7 12)"><text x="0" y="20" font-family="Cascadia, Segoe UI Emoji" font-size="20px" fill="#e67700" text-anchor="start" style="white-space: pre;" direction="ltr">9</text></g><g stroke-linecap="round"><g transform="translate(1985.4824789145528 2394.6876255571196) rotate(0 -14.243551299429328 12.857247648405746)"><path d="M0.7 -1.88 C-7.78 8.1, -12.72 12.23, -29.18 27.6 M-0.46 0.32 C-10.55 9.1, -20.47 19.96, -27.64 26.82" stroke="#5f3dc4" stroke-width="2" fill="none"></path></g></g><g transform="translate(2241.2787718757 2395.860990415356) rotate(0 147.5 12)"><text x="0" y="20" font-family="Cascadia, Segoe UI Emoji" font-size="20px" fill="#5f3dc4" text-anchor="start" style="white-space: pre;" direction="ltr">|s.x - b.x| + |s.y - b.y|</text></g><g stroke-linecap="round"><g transform="translate(72.97683201222998 2724.3555825351336) rotate(0 396.3321907501811 -3.0254504680160608)"><path d="M0 0.16 C301.22 -0.96, 600.63 -3.45, 792.67 -5.42 M0.32 -0.1 C269.03 -1.14, 537.14 -3.16, 791.94 -6.21" stroke="#e67700" stroke-width="2" fill="none"></path></g></g><g stroke-linecap="round"><g transform="translate(29.114209659427615 2748.455035596752) rotate(0 86.09187917404267 -0.9294831810479991)"><path d="M-1.2 0.44 C50.95 -0.61, 103.43 -1.66, 173.39 -1.33 M0.02 0.64 C45.93 0.04, 91.63 -0.03, 172.07 -2.5" stroke="#e67700" stroke-width="2" fill="none"></path></g></g><g stroke-linecap="round"><g transform="translate(327.95765299251 2746.1325561927592) rotate(0 297.8942136687726 0.5344894749880496)"><path d="M0.64 0.38 C226.27 1.95, 452.38 1.55, 595.59 -0.01 M0.13 0.16 C155.87 -0.64, 311.17 -0.43, 595.66 0.89" stroke="#e67700" stroke-width="2" fill="none"></path></g></g><g stroke-linecap="round"><g transform="translate(31.723329555197267 2773.803926354936) rotate(0 304.2626102475249 -1.5107858298954397)"><path d="M-0.48 -0.11 C191.2 -1.2, 381.55 -1.53, 608.95 -3 M-0.15 0.05 C148.52 1.26, 297.4 0.9, 609.01 -3.67" stroke="#e67700" stroke-width="2" fill="none"></path></g></g><g stroke-linecap="round"><g transform="translate(228.72047061298667 3078.5320049605803) rotate(0 318.6572097412989 2.4124863600322897)"><path d="M-0.45 0.21 C223.67 0.81, 447.91 2.32, 637.33 4 M0.08 -0.08 C157.09 1.88, 314.73 3.02, 637.76 4.9" stroke="#e67700" stroke-width="2" fill="none"></path></g></g><g stroke-linecap="round"><g transform="translate(33.49213716627753 3107.0632726734993) rotate(0 142.37212047912686 -0.2995775935880829)"><path d="M0.82 0.36 C95.11 -0.88, 188.62 -0.41, 285.03 -0.9 M-0.28 0.34 C71.18 1.25, 143.06 -0.25, 284.8 -1.22" stroke="#e67700" stroke-width="2" fill="none"></path></g></g><g transform="translate(995.7244913984076 2687.1670584431995) rotate(0 141 36)"><text x="0" y="20" font-family="Cascadia, Segoe UI Emoji" font-size="20px" fill="#e67700" text-anchor="start" style="white-space: pre;" direction="ltr">count the postions where</text><text x="0" y="44" font-family="Cascadia, Segoe UI Emoji" font-size="20px" fill="#e67700" text-anchor="start" style="white-space: pre;" direction="ltr">a becon cannot exist</text><text x="0" y="68" font-family="Cascadia, Segoe UI Emoji" font-size="20px" fill="#e67700" text-anchor="start" style="white-space: pre;" direction="ltr">in a single row</text></g><g stroke-linecap="round"><g transform="translate(676.9011220046309 3151.9769021879542) rotate(0 95.95559476251009 1.9380962188024569)"><path d="M0.7 0.4 C41.19 1.5, 84 1.44, 191.23 3.97 M0.68 0.53 C47.68 -0.52, 96.12 -0.37, 189.77 1.96" stroke="#e67700" stroke-width="2" fill="none"></path></g></g><g stroke-linecap="round"><g transform="translate(30.001061249402596 3184.572526801302) rotate(0 53.674008223482986 -0.500564758222481)"><path d="M-1.35 -0.24 C33.7 0.55, 68.88 -1.15, 107.97 0.27 M-0.81 -0.39 C30.45 -1.65, 59.44 -1.49, 108.7 -0.34" stroke="#e67700" stroke-width="2" fill="none"></path></g></g><g stroke-linecap="round"><g transform="translate(169.96013874455616 3183.7273189477423) rotate(0 247.40424928098437 -0.9443920043631806)"><path d="M0.06 0.1 C141.21 -2.5, 283.2 -2.67, 494.49 -0.39 M0.23 -0.31 C193.39 -0.85, 386.94 -0.62, 494.75 -0.66" stroke="#e67700" stroke-width="2" fill="none"></path></g></g><g transform="translate(2110.979736217962 1006.8787672104215) rotate(0 252.5 216)"><text x="0" y="20" font-family="Cascadia, Segoe UI Emoji" font-size="20px" fill="#495057" text-anchor="start" style="white-space: pre;" direction="ltr">padding = ?</text><text x="0" y="44" font-family="Cascadia, Segoe UI Emoji" font-size="20px" fill="#495057" text-anchor="start" style="white-space: pre;" direction="ltr"></text><text x="0" y="68" font-family="Cascadia, Segoe UI Emoji" font-size="20px" fill="#495057" text-anchor="start" style="white-space: pre;" direction="ltr">grid = grid(maxX + padding, maxY + padding)</text><text x="0" y="92" font-family="Cascadia, Segoe UI Emoji" font-size="20px" fill="#495057" text-anchor="start" style="white-space: pre;" direction="ltr"></text><text x="0" y="116" font-family="Cascadia, Segoe UI Emoji" font-size="20px" fill="#495057" text-anchor="start" style="white-space: pre;" direction="ltr">given sensor s, beacon b</text><text x="0" y="140" font-family="Cascadia, Segoe UI Emoji" font-size="20px" fill="#495057" text-anchor="start" style="white-space: pre;" direction="ltr">    manhattan distance = calculateMD(s,b)</text><text x="0" y="164" font-family="Cascadia, Segoe UI Emoji" font-size="20px" fill="#495057" text-anchor="start" style="white-space: pre;" direction="ltr"></text><text x="0" y="188" font-family="Cascadia, Segoe UI Emoji" font-size="20px" fill="#495057" text-anchor="start" style="white-space: pre;" direction="ltr">    for 1 to manhattan distance:</text><text x="0" y="212" font-family="Cascadia, Segoe UI Emoji" font-size="20px" fill="#495057" text-anchor="start" style="white-space: pre;" direction="ltr">        calculate points</text><text x="0" y="236" font-family="Cascadia, Segoe UI Emoji" font-size="20px" fill="#495057" text-anchor="start" style="white-space: pre;" direction="ltr"></text><text x="0" y="260" font-family="Cascadia, Segoe UI Emoji" font-size="20px" fill="#495057" text-anchor="start" style="white-space: pre;" direction="ltr">    for each point:</text><text x="0" y="284" font-family="Cascadia, Segoe UI Emoji" font-size="20px" fill="#495057" text-anchor="start" style="white-space: pre;" direction="ltr">        if there is a beacon:</text><text x="0" y="308" font-family="Cascadia, Segoe UI Emoji" font-size="20px" fill="#495057" text-anchor="start" style="white-space: pre;" direction="ltr">            grid.at(point) = b</text><text x="0" y="332" font-family="Cascadia, Segoe UI Emoji" font-size="20px" fill="#495057" text-anchor="start" style="white-space: pre;" direction="ltr">        else</text><text x="0" y="356" font-family="Cascadia, Segoe UI Emoji" font-size="20px" fill="#495057" text-anchor="start" style="white-space: pre;" direction="ltr">            grid.at(point) = #</text><text x="0" y="380" font-family="Cascadia, Segoe UI Emoji" font-size="20px" fill="#495057" text-anchor="start" style="white-space: pre;" direction="ltr"></text><text x="0" y="404" font-family="Cascadia, Segoe UI Emoji" font-size="20px" fill="#495057" text-anchor="start" style="white-space: pre;" direction="ltr">                </text><text x="0" y="428" font-family="Cascadia, Segoe UI Emoji" font-size="20px" fill="#495057" text-anchor="start" style="white-space: pre;" direction="ltr"></text></g><g transform="translate(2398.563474320032 1153.911834094777) rotate(0 100.09386753591957 0.06349450522361622)" stroke="none"><path fill="#495057" d="M 0.03,-1.31 Q 0.03,-1.31 1.81,-1.36 3.59,-1.41 6.25,-1.37 8.92,-1.33 12.71,-1.29 16.51,-1.26 21.45,-1.24 26.39,-1.21 32.13,-1.19 37.87,-1.18 44.25,-1.16 50.62,-1.15 57.40,-1.14 64.19,-1.13 70.98,-1.12 77.76,-1.11 84.41,-1.11 91.06,-1.10 97.42,-1.08 103.78,-1.06 109.61,-1.03 115.43,-1.00 120.75,-0.99 126.07,-0.97 130.72,-0.97 135.37,-0.96 139.78,-0.96 144.20,-0.95 148.26,-0.95 152.32,-0.95 155.75,-0.96 159.17,-0.98 162.28,-1.02 165.38,-1.06 168.04,-1.10 170.71,-1.15 173.01,-1.19 175.31,-1.24 177.30,-1.32 179.30,-1.40 181.08,-1.50 182.87,-1.60 184.50,-1.70 186.13,-1.80 187.59,-1.90 189.04,-2.00 190.29,-2.09 191.54,-2.18 193.39,-2.34 195.24,-2.50 197.69,-2.57 200.13,-2.65 200.52,-2.59 200.90,-2.52 201.25,-2.34 201.60,-2.16 201.86,-1.87 202.13,-1.59 202.30,-1.23 202.46,-0.88 202.50,-0.49 202.55,-0.10 202.46,0.27 202.38,0.65 202.18,0.99 201.98,1.32 201.68,1.58 201.38,1.83 201.02,1.97 200.65,2.12 200.26,2.14 199.87,2.16 199.49,2.06 199.12,1.95 198.79,1.73 198.47,1.51 198.23,1.20 198.00,0.89 197.87,0.52 197.75,0.15 197.75,-0.23 197.75,-0.62 197.87,-0.99 198.00,-1.36 198.23,-1.68 198.47,-1.99 198.79,-2.21 199.12,-2.43 199.49,-2.53 199.87,-2.64 200.26,-2.61 200.65,-2.59 201.02,-2.45 201.38,-2.30 201.68,-2.05 201.98,-1.80 202.18,-1.46 202.38,-1.13 202.46,-0.74 202.55,-0.36 202.50,0.02 202.46,0.41 202.30,0.76 202.13,1.12 201.86,1.40 201.60,1.68 201.25,1.87 200.90,2.05 200.52,2.11 200.13,2.18 200.13,2.18 200.13,2.18 197.69,2.10 195.25,2.03 193.41,1.88 191.56,1.74 190.33,1.66 189.09,1.59 187.64,1.53 186.19,1.47 184.56,1.43 182.94,1.39 181.15,1.36 179.36,1.34 177.36,1.36 175.36,1.38 173.06,1.42 170.75,1.47 168.08,1.52 165.42,1.57 162.30,1.60 159.18,1.64 155.75,1.66 152.32,1.67 148.26,1.67 144.20,1.67 139.78,1.67 135.36,1.67 130.71,1.67 126.06,1.67 120.74,1.66 115.42,1.65 109.60,1.62 103.77,1.60 97.42,1.58 91.06,1.57 84.41,1.57 77.76,1.58 70.98,1.58 64.19,1.59 57.40,1.60 50.62,1.61 44.25,1.63 37.87,1.64 32.13,1.66 26.39,1.68 21.45,1.70 16.51,1.73 12.72,1.77 8.92,1.80 6.27,1.86 3.62,1.91 1.84,1.89 0.06,1.86 -0.12,1.84 -0.31,1.82 -0.49,1.75 -0.67,1.68 -0.83,1.58 -0.99,1.47 -1.12,1.33 -1.25,1.18 -1.34,1.01 -1.43,0.85 -1.47,0.66 -1.52,0.47 -1.52,0.28 -1.52,0.09 -1.48,-0.09 -1.43,-0.27 -1.35,-0.44 -1.26,-0.61 -1.13,-0.76 -1.01,-0.90 -0.85,-1.01 -0.69,-1.12 -0.51,-1.19 -0.34,-1.26 -0.15,-1.28 0.03,-1.31 0.03,-1.31 L 0.03,-1.31 Z"></path></g><g transform="translate(2576.5832684699308 1163.195704709888) rotate(0 137.66871668947238 7.4333406184312025)" stroke="none"><path fill="#495057" d="M 0.69,-11.88 Q 0.69,-11.88 2.78,-10.81 4.87,-9.74 7.63,-8.14 10.40,-6.55 14.26,-4.10 18.12,-1.65 23.50,1.66 28.88,4.97 35.85,8.79 42.83,12.60 50.96,16.34 59.09,20.07 67.70,23.22 76.31,26.36 85.27,28.70 94.22,31.04 103.71,32.43 113.20,33.83 123.42,34.45 133.64,35.08 144.45,34.82 155.26,34.55 166.35,33.18 177.43,31.80 188.30,29.40 199.17,27.00 208.35,24.06 217.53,21.12 225.11,17.50 232.68,13.87 238.81,9.93 244.93,5.99 249.33,2.36 253.73,-1.25 257.35,-4.71 260.97,-8.17 263.69,-11.01 266.42,-13.86 268.28,-15.95 270.14,-18.04 271.79,-20.27 273.43,-22.49 273.62,-22.66 273.81,-22.83 274.04,-22.93 274.27,-23.02 274.52,-23.04 274.77,-23.06 275.02,-23.00 275.26,-22.94 275.48,-22.80 275.69,-22.67 275.85,-22.47 276.00,-22.27 276.09,-22.03 276.17,-21.80 276.18,-21.54 276.19,-21.29 276.11,-21.05 276.04,-20.81 275.89,-20.60 275.74,-20.40 275.53,-20.25 275.33,-20.11 275.09,-20.03 274.85,-19.96 274.59,-19.97 274.34,-19.98 274.10,-20.06 273.87,-20.15 273.67,-20.31 273.48,-20.47 273.34,-20.68 273.20,-20.90 273.14,-21.14 273.09,-21.39 273.11,-21.64 273.13,-21.89 273.23,-22.12 273.33,-22.35 273.50,-22.54 273.67,-22.73 273.89,-22.85 274.11,-22.98 274.36,-23.02 274.61,-23.07 274.86,-23.03 275.11,-23.00 275.33,-22.89 275.56,-22.77 275.73,-22.59 275.91,-22.41 276.02,-22.19 276.13,-21.96 276.17,-21.71 276.20,-21.46 276.15,-21.21 276.10,-20.96 275.98,-20.74 275.85,-20.53 275.85,-20.53 275.85,-20.53 273.98,-18.41 272.11,-16.29 270.21,-14.17 268.31,-12.04 265.55,-9.15 262.78,-6.27 259.09,-2.74 255.40,0.77 250.88,4.49 246.36,8.20 240.09,12.22 233.82,16.25 226.08,19.94 218.33,23.62 209.04,26.60 199.74,29.57 188.75,32.00 177.76,34.42 166.54,35.80 155.32,37.19 144.40,37.46 133.48,37.72 123.15,37.09 112.82,36.45 103.18,35.04 93.55,33.62 84.47,31.25 75.40,28.88 66.68,25.70 57.96,22.53 49.74,18.76 41.52,15.00 34.48,11.16 27.43,7.33 22.03,4.03 16.62,0.72 12.80,-1.65 8.98,-4.04 6.26,-5.55 3.55,-7.06 1.42,-8.07 -0.69,-9.08 -0.84,-9.18 -1.00,-9.28 -1.13,-9.42 -1.26,-9.56 -1.35,-9.72 -1.44,-9.89 -1.49,-10.07 -1.54,-10.25 -1.55,-10.44 -1.55,-10.63 -1.51,-10.81 -1.47,-11.00 -1.39,-11.16 -1.30,-11.33 -1.18,-11.48 -1.06,-11.62 -0.91,-11.73 -0.76,-11.84 -0.58,-11.91 -0.41,-11.98 -0.22,-12.01 -0.03,-12.04 0.14,-12.02 0.33,-12.00 0.51,-11.94 0.69,-11.88 0.69,-11.88 L 0.69,-11.88 Z"></path></g><g transform="translate(2724.9774776477316 1098.772919666047) rotate(0 147.5 12)"><text x="0" y="20" font-family="Cascadia, Segoe UI Emoji" font-size="20px" fill="#495057" text-anchor="start" style="white-space: pre;" direction="ltr">|s.x - b.x| + |s.y - b.y|</text></g><g stroke-linecap="round"><g transform="translate(2207.6739727674153 1222.7360051460605) rotate(0 92.75038395772481 0.8015342146538842)"><path d="M-0.33 -0.41 C73.11 2.9, 147.79 0.71, 184.17 2.03 M-0.36 -0.43 C69.83 2.23, 140.05 1.97, 185.86 0.17" stroke="#495057" stroke-width="2" fill="none"></path></g></g><g transform="translate(2396.4174705096784 1229.053132801108) rotate(0 148.84571106213048 33.337219183898014)" stroke="none"><path fill="#495057" d="M 0.01,-1.56 Q 0.01,-1.56 2.93,-1.50 5.86,-1.45 9.76,-1.42 13.66,-1.38 20.20,-1.36 26.74,-1.34 35.72,-1.33 44.70,-1.31 54.84,-1.14 64.98,-0.97 75.96,-0.38 86.94,0.20 97.81,1.26 108.67,2.31 118.92,3.65 129.16,4.98 138.65,6.43 148.13,7.89 156.78,9.42 165.43,10.95 173.39,12.54 181.35,14.13 188.74,15.76 196.14,17.40 202.81,19.00 209.47,20.59 215.69,22.16 221.91,23.72 228.48,25.51 235.04,27.30 241.37,29.17 247.69,31.05 253.10,32.89 258.51,34.74 263.18,36.70 267.85,38.67 271.59,40.63 275.33,42.59 278.27,44.45 281.21,46.32 283.49,48.03 285.77,49.75 287.55,51.33 289.32,52.92 290.73,54.36 292.13,55.80 293.25,57.10 294.37,58.40 295.27,59.54 296.16,60.69 296.83,61.61 297.50,62.54 298.40,64.02 299.30,65.50 299.41,65.80 299.52,66.10 299.53,66.42 299.55,66.74 299.46,67.05 299.37,67.35 299.18,67.62 299.00,67.88 298.74,68.07 298.48,68.26 298.18,68.35 297.87,68.45 297.55,68.44 297.23,68.44 296.93,68.33 296.63,68.23 296.38,68.03 296.13,67.83 295.95,67.56 295.78,67.29 295.70,66.98 295.61,66.67 295.64,66.35 295.66,66.04 295.78,65.74 295.91,65.45 296.12,65.20 296.33,64.96 296.61,64.80 296.88,64.64 297.20,64.58 297.51,64.52 297.83,64.56 298.15,64.60 298.43,64.74 298.72,64.88 298.95,65.10 299.18,65.32 299.32,65.61 299.47,65.89 299.52,66.21 299.56,66.53 299.50,66.84 299.45,67.16 299.29,67.44 299.14,67.72 298.90,67.93 298.67,68.15 298.37,68.28 298.08,68.41 297.76,68.44 297.44,68.47 297.13,68.39 296.82,68.32 296.55,68.15 296.28,67.98 296.08,67.73 295.87,67.48 295.87,67.48 295.87,67.48 294.58,65.07 293.29,62.65 292.61,61.48 291.93,60.31 291.01,59.01 290.10,57.70 288.84,56.29 287.57,54.87 285.88,53.36 284.19,51.85 282.00,50.19 279.80,48.54 276.96,46.72 274.11,44.91 270.47,43.00 266.83,41.09 262.25,39.16 257.66,37.22 252.30,35.40 246.94,33.57 240.65,31.70 234.35,29.84 227.81,28.06 221.26,26.28 215.06,24.72 208.86,23.16 202.21,21.57 195.57,19.98 188.20,18.35 180.83,16.72 172.90,15.14 164.97,13.56 156.35,12.04 147.73,10.51 138.28,9.07 128.82,7.62 118.62,6.30 108.41,4.98 97.61,3.94 86.80,2.90 75.86,2.32 64.93,1.75 54.81,1.60 44.69,1.44 35.72,1.45 26.74,1.47 20.20,1.48 13.65,1.50 9.75,1.51 5.84,1.53 2.91,1.54 -0.01,1.56 -0.19,1.53 -0.38,1.51 -0.55,1.44 -0.73,1.37 -0.88,1.27 -1.04,1.16 -1.16,1.02 -1.29,0.87 -1.37,0.71 -1.46,0.54 -1.50,0.36 -1.55,0.17 -1.55,-0.01 -1.54,-0.19 -1.50,-0.38 -1.45,-0.56 -1.36,-0.72 -1.27,-0.89 -1.15,-1.03 -1.02,-1.17 -0.87,-1.28 -0.71,-1.38 -0.54,-1.45 -0.36,-1.51 -0.17,-1.54 0.01,-1.56 0.01,-1.56 L 0.01,-1.56 Z"></path></g><g transform="translate(2689.9175605216446 1302.2139989684538) rotate(0 182 84)"><text x="0" y="20" font-family="Cascadia, Segoe UI Emoji" font-size="20px" fill="#495057" text-anchor="start" style="white-space: pre;" direction="ltr">points at manhattan distance 1:</text><text x="0" y="44" font-family="Cascadia, Segoe UI Emoji" font-size="20px" fill="#495057" text-anchor="start" style="white-space: pre;" direction="ltr">    s.x, s.y + 1</text><text x="0" y="68" font-family="Cascadia, Segoe UI Emoji" font-size="20px" fill="#495057" text-anchor="start" style="white-space: pre;" direction="ltr">    s.x, s.y - 1</text><text x="0" y="92" font-family="Cascadia, Segoe UI Emoji" font-size="20px" fill="#495057" text-anchor="start" style="white-space: pre;" direction="ltr">    s.x + 1, s.y</text><text x="0" y="116" font-family="Cascadia, Segoe UI Emoji" font-size="20px" fill="#495057" text-anchor="start" style="white-space: pre;" direction="ltr">    s.x - 1, s.y</text><text x="0" y="140" font-family="Cascadia, Segoe UI Emoji" font-size="20px" fill="#495057" text-anchor="start" style="white-space: pre;" direction="ltr">    </text><text x="0" y="164" font-family="Cascadia, Segoe UI Emoji" font-size="20px" fill="#495057" text-anchor="start" style="white-space: pre;" direction="ltr">    </text></g><g transform="translate(1398.3904690583458 2349.955196854378) rotate(0 129.5 84)"><text x="0" y="20" font-family="Cascadia, Segoe UI Emoji" font-size="20px" fill="#343a40" text-anchor="start" style="white-space: pre;" direction="ltr"></text><text x="0" y="44" font-family="Cascadia, Segoe UI Emoji" font-size="20px" fill="#343a40" text-anchor="start" style="white-space: pre;" direction="ltr">for each s in sensors:</text><text x="0" y="68" font-family="Cascadia, Segoe UI Emoji" font-size="20px" fill="#343a40" text-anchor="start" style="white-space: pre;" direction="ltr">    mdA = md(p,s)</text><text x="0" y="92" font-family="Cascadia, Segoe UI Emoji" font-size="20px" fill="#343a40" text-anchor="start" style="white-space: pre;" direction="ltr">    mdB = md(s,b)</text><text x="0" y="116" font-family="Cascadia, Segoe UI Emoji" font-size="20px" fill="#343a40" text-anchor="start" style="white-space: pre;" direction="ltr">    if mdA &lt;= mdB:</text><text x="0" y="140" font-family="Cascadia, Segoe UI Emoji" font-size="20px" fill="#343a40" text-anchor="start" style="white-space: pre;" direction="ltr">        row[point] = #</text><text x="0" y="164" font-family="Cascadia, Segoe UI Emoji" font-size="20px" fill="#343a40" text-anchor="start" style="white-space: pre;" direction="ltr"></text></g><g transform="translate(1364.8751822561426 2334.434830260054) rotate(0 141.5 12)"><text x="0" y="20" font-family="Cascadia, Segoe UI Emoji" font-size="20px" fill="#343a40" text-anchor="start" style="white-space: pre;" direction="ltr">for each point p in row:</text></g><g transform="translate(1365.236279473404 2505.5042282820677) rotate(0 83 12)"><text x="0" y="20" font-family="Cascadia, Segoe UI Emoji" font-size="20px" fill="#343a40" text-anchor="start" style="white-space: pre;" direction="ltr">count # in row</text></g><g transform="translate(1333.972087154607 2135.488928042567) rotate(0 346.0000000000001 36)"><text x="0" y="20" font-family="Cascadia, Segoe UI Emoji" font-size="20px" fill="#e67700" text-anchor="start" style="white-space: pre;" direction="ltr">Test each point in a given row</text><text x="0" y="44" font-family="Cascadia, Segoe UI Emoji" font-size="20px" fill="#e67700" text-anchor="start" style="white-space: pre;" direction="ltr">checking that its distance to every sensor is less or equal</text><text x="0" y="68" font-family="Cascadia, Segoe UI Emoji" font-size="20px" fill="#e67700" text-anchor="start" style="white-space: pre;" direction="ltr">to that sensor's manhattan distance from its beacon</text></g><g transform="translate(1658.8810276397035 2148.3662377216406) rotate(0 44.42804254994485 -72.44135763395616)" stroke="none"><path fill="#e67700" d="M -1.48,-17.51 Q -1.48,-17.51 -0.63,-19.96 0.20,-22.40 1.77,-26.02 3.33,-29.64 6.38,-35.62 9.44,-41.61 13.79,-49.32 18.14,-57.04 23.32,-65.20 28.49,-73.35 34.36,-81.64 40.24,-89.93 45.58,-96.60 50.92,-103.27 55.56,-108.24 60.19,-113.20 64.31,-116.79 68.43,-120.39 71.63,-122.56 74.82,-124.74 77.22,-125.95 79.62,-127.16 81.40,-127.82 83.18,-128.47 85.88,-128.93 88.59,-129.39 88.83,-129.37 89.07,-129.35 89.29,-129.25 89.51,-129.16 89.69,-128.99 89.87,-128.83 89.99,-128.62 90.11,-128.40 90.15,-128.16 90.20,-127.93 90.16,-127.69 90.13,-127.44 90.02,-127.23 89.91,-127.01 89.74,-126.84 89.56,-126.67 89.34,-126.56 89.13,-126.46 88.88,-126.43 88.64,-126.40 88.41,-126.44 88.17,-126.49 87.96,-126.61 87.75,-126.73 87.59,-126.92 87.42,-127.10 87.33,-127.32 87.24,-127.55 87.22,-127.79 87.20,-128.03 87.26,-128.27 87.32,-128.50 87.45,-128.70 87.59,-128.91 87.78,-129.06 87.97,-129.21 88.20,-129.29 88.43,-129.37 88.67,-129.38 88.91,-129.38 89.14,-129.31 89.37,-129.24 89.57,-129.09 89.77,-128.95 89.91,-128.75 90.05,-128.55 90.12,-128.32 90.19,-128.09 90.18,-127.84 90.17,-127.60 90.08,-127.37 90.00,-127.15 89.84,-126.96 89.69,-126.77 89.48,-126.64 89.28,-126.51 89.04,-126.46 88.81,-126.40 88.81,-126.40 88.81,-126.40 86.44,-126.05 84.08,-125.70 82.44,-125.25 80.80,-124.80 78.55,-123.67 76.31,-122.55 73.24,-120.47 70.18,-118.39 66.16,-114.88 62.14,-111.38 57.58,-106.49 53.01,-101.60 47.73,-94.99 42.44,-88.37 36.62,-80.13 30.80,-71.89 25.67,-63.79 20.55,-55.69 16.25,-48.01 11.95,-40.33 8.97,-34.42 5.99,-28.51 4.52,-24.99 3.04,-21.46 2.26,-18.99 1.48,-16.53 1.40,-16.35 1.32,-16.18 1.20,-16.04 1.08,-15.89 0.93,-15.78 0.78,-15.67 0.61,-15.59 0.43,-15.52 0.25,-15.49 0.06,-15.46 -0.12,-15.47 -0.30,-15.48 -0.48,-15.54 -0.66,-15.60 -0.82,-15.70 -0.98,-15.80 -1.11,-15.94 -1.24,-16.07 -1.34,-16.24 -1.43,-16.40 -1.48,-16.58 -1.54,-16.76 -1.54,-16.95 -1.55,-17.14 -1.52,-17.32 -1.48,-17.51 -1.48,-17.51 L -1.48,-17.51 Z"></path></g><g transform="translate(1770.428333838709 1986.933009364756) rotate(0 318.4999999999999 18)"><text x="0" y="25" font-family="Virgil, Segoe UI Emoji" font-size="28px" fill="#e67700" text-anchor="start" style="white-space: pre;" direction="ltr">How to decide which points to test in a row??</text></g><g transform="translate(1950.3591846463255 1866.5192933174949) rotate(0 31.5 65)"><text x="0" y="91" font-family="Virgil, Segoe UI Emoji" font-size="102.3778071570498px" fill="#e67700" text-anchor="start" style="white-space: pre;" direction="ltr">!!</text></g><g transform="translate(2535.6437959582054 1977.9360299008) rotate(0 147.5 24)"><text x="0" y="20" font-family="Cascadia, Segoe UI Emoji" font-size="20px" fill="#000000" text-anchor="start" style="white-space: pre;" direction="ltr">Take the left-most s</text><text x="0" y="44" font-family="Cascadia, Segoe UI Emoji" font-size="20px" fill="#000000" text-anchor="start" style="white-space: pre;" direction="ltr">subtract md(s,b) from s.x</text></g><g transform="translate(2445.9996629598872 1986.4580955134084) rotate(0 36 12)"><text x="0" y="20" font-family="Cascadia, Segoe UI Emoji" font-size="20px" fill="#000000" text-anchor="start" style="white-space: pre;" direction="ltr">minX =</text></g><g transform="translate(2446.6268288266665 2078.3864888015587) rotate(0 42 12)"><text x="0" y="20" font-family="Cascadia, Segoe UI Emoji" font-size="20px" fill="#000000" text-anchor="start" style="white-space: pre;" direction="ltr">maxX = </text></g><g transform="translate(2528.0587829992046 2067.8950817574623) rotate(0 123.5 24)"><text x="0" y="20" font-family="Cascadia, Segoe UI Emoji" font-size="20px" fill="#000000" text-anchor="start" style="white-space: pre;" direction="ltr">Take the right-most s</text><text x="0" y="44" font-family="Cascadia, Segoe UI Emoji" font-size="20px" fill="#000000" text-anchor="start" style="white-space: pre;" direction="ltr">add md(s,b) to s.x</text></g><g transform="translate(2450.791468204179 1948.0345127035735) rotate(0 182.49091225137386 106.77271237811021)" stroke="none"><path fill="#495057" d="M -7.72,-2.28 Q -7.72,-2.28 -1.01,-4.27 5.68,-6.27 16.19,-10.82 26.70,-15.37 41.73,-22.28 56.75,-29.20 76.55,-37.48 96.35,-45.75 120.09,-53.79 143.84,-61.83 170.38,-68.15 196.91,-74.47 224.76,-78.26 252.60,-82.05 277.44,-83.77 302.27,-85.49 323.26,-85.18 344.24,-84.88 362.31,-81.83 380.38,-78.78 394.35,-73.37 408.31,-67.96 418.21,-61.44 428.10,-54.92 435.07,-46.73 442.03,-38.54 446.58,-28.08 451.13,-17.61 452.98,-5.49 454.84,6.62 452.20,22.85 449.55,39.08 440.26,60.22 430.97,81.36 415.23,105.34 399.48,129.32 378.50,153.84 357.51,178.37 333.32,200.55 309.12,222.73 282.96,240.41 256.80,258.09 228.67,269.92 200.54,281.75 170.67,287.46 140.81,293.16 110.25,291.41 79.70,289.67 50.95,279.23 22.20,268.79 -1.36,251.32 -24.93,233.85 -40.90,214.00 -56.86,194.15 -66.21,174.08 -75.56,154.00 -80.53,133.88 -85.51,113.75 -87.60,105.25 -89.70,96.75 -89.71,96.54 -89.73,96.33 -89.68,96.12 -89.63,95.91 -89.51,95.73 -89.40,95.56 -89.23,95.42 -89.07,95.29 -88.87,95.22 -88.67,95.14 -88.45,95.14 -88.24,95.13 -88.04,95.20 -87.84,95.26 -87.66,95.38 -87.49,95.51 -87.37,95.68 -87.24,95.85 -87.18,96.06 -87.12,96.26 -87.13,96.47 -87.13,96.68 -87.21,96.88 -87.28,97.08 -87.41,97.25 -87.55,97.41 -87.73,97.53 -87.91,97.64 -88.11,97.69 -88.32,97.74 -88.53,97.73 -88.74,97.71 -88.94,97.62 -89.13,97.54 -89.29,97.40 -89.45,97.26 -89.55,97.07 -89.66,96.88 -89.70,96.68 -89.74,96.47 -89.71,96.26 -89.68,96.05 -89.58,95.86 -89.49,95.67 -89.34,95.52 -89.19,95.37 -89.00,95.27 -88.81,95.18 -88.59,95.15 -88.38,95.12 -88.18,95.16 -87.97,95.20 -87.78,95.31 -87.60,95.41 -87.46,95.57 -87.31,95.73 -87.23,95.93 -87.15,96.12 -87.15,96.12 -87.15,96.12 -85.05,104.62 -82.96,113.13 -78.07,133.02 -73.18,152.91 -63.99,172.71 -54.81,192.52 -39.08,212.14 -23.35,231.76 -0.11,249.05 23.13,266.34 51.50,276.69 79.88,287.05 110.11,288.82 140.33,290.58 169.93,284.95 199.53,279.33 227.43,267.62 255.33,255.91 281.34,238.35 307.35,220.80 331.43,198.73 355.52,176.66 376.40,152.26 397.29,127.87 412.93,104.08 428.57,80.30 437.77,59.46 446.97,38.63 449.60,22.80 452.24,6.97 450.47,-4.80 448.71,-16.59 444.35,-26.73 440.00,-36.87 433.31,-44.80 426.63,-52.74 416.98,-59.12 407.34,-65.50 393.64,-70.84 379.93,-76.17 362.06,-79.20 344.20,-82.22 323.33,-82.53 302.46,-82.83 277.71,-81.11 252.96,-79.39 225.25,-75.62 197.54,-71.84 171.13,-65.54 144.72,-59.25 121.07,-51.23 97.41,-43.20 77.67,-34.92 57.93,-26.64 42.89,-19.68 27.85,-12.72 17.20,-8.06 6.55,-3.41 -0.13,-1.35 -6.81,0.70 -7.00,0.74 -7.18,0.77 -7.37,0.76 -7.56,0.74 -7.74,0.69 -7.92,0.63 -8.08,0.53 -8.24,0.43 -8.37,0.30 -8.50,0.16 -8.60,0.00 -8.70,-0.15 -8.75,-0.33 -8.81,-0.51 -8.82,-0.70 -8.83,-0.89 -8.79,-1.07 -8.75,-1.26 -8.68,-1.43 -8.60,-1.60 -8.48,-1.75 -8.36,-1.89 -8.21,-2.01 -8.06,-2.12 -7.89,-2.20 -7.72,-2.28 -7.72,-2.28 L -7.72,-2.28 Z"></path></g><g stroke-linecap="round"><g transform="translate(1580.1317430625409 2158.455528285165) rotate(0 61.78138186216336 0.12906107161916225)"><path d="M-0.64 1.55 C20.29 0.88, 103.13 -1.28, 124.2 -1.29 M4.21 -0.07 C24.79 0.76, 101.32 1.92, 121.32 1.33" stroke="#5f3dc4" stroke-width="1" fill="none"></path></g></g><g transform="translate(1717.675097859344 2126.822196788589) rotate(348.99221097578754 5.5 12.5)"><text x="0" y="18" font-family="Virgil, Segoe UI Emoji" font-size="20px" fill="#5f3dc4" text-anchor="start" style="white-space: pre;" direction="ltr">y</text></g><g stroke-linecap="round" transform="translate(1347.1102536553012 2316.693090213474) rotate(0 181.82208274455036 116.94739969042325)"><path d="M0 0 C90.58 0, 181.15 0, 363.64 0 M363.64 0 C363.64 92.37, 363.64 184.74, 363.64 233.89 M363.64 233.89 C221.74 233.89, 79.84 233.89, 0 233.89 M0 233.89 C0 160.84, 0 87.79, 0 0" stroke="#343a40" stroke-width="1.5" fill="none" stroke-dasharray="8 9"></path></g><g stroke-linecap="round" transform="translate(412.99121601262675 3045.4502944297938) rotate(0 42.61124245355353 24.322757502479362)"><path d="M42.09 0.73 C50.02 0.13, 60.58 1.23, 67.23 3.64 C73.87 6.05, 79.23 10.52, 81.96 15.19 C84.7 19.87, 85.73 26.95, 83.64 31.67 C81.55 36.39, 76.01 40.64, 69.45 43.51 C62.89 46.38, 52.81 48.67, 44.26 48.87 C35.71 49.07, 25.12 47.37, 18.15 44.7 C11.19 42.03, 5.2 37.5, 2.49 32.84 C-0.21 28.18, -0.27 21.37, 1.93 16.72 C4.14 12.07, 8.84 7.66, 15.73 4.94 C22.63 2.22, 38.48 1.18, 43.31 0.38 C48.14 -0.42, 44.74 -0.22, 44.71 0.14 M24.06 1.34 C30.73 -0.67, 39.64 -0.06, 47.89 1 C56.15 2.06, 67.27 4.5, 73.61 7.69 C79.94 10.88, 84.92 15.32, 85.9 20.11 C86.89 24.9, 83.34 31.99, 79.52 36.45 C75.7 40.9, 70.24 45.06, 62.96 46.82 C55.69 48.58, 44.32 47.72, 35.88 47.01 C27.44 46.29, 18.15 45.77, 12.33 42.52 C6.5 39.26, 2.41 32.37, 0.92 27.48 C-0.57 22.59, -0.42 17.49, 3.41 13.18 C7.23 8.86, 20.32 3.19, 23.86 1.62 C27.4 0.05, 24.19 3.01, 24.64 3.75" stroke="#5f3dc4" stroke-width="2" fill="none"></path></g><g stroke-linecap="round" transform="translate(10.000000000000028 618.9502016738703) rotate(0 347.6164932784197 182.9575410626374)"><path d="M-0.6 0.03 C146.41 0.33, 293.93 -0.75, 694.62 -0.19 M0.11 -0.18 C185.27 0.14, 371.27 0.11, 695.08 0.34 M694.62 1.13 C695.21 114.65, 695.2 228.65, 696.15 365.76 M695.07 -0.1 C695.65 104.44, 695.55 207.81, 695.64 365.89 M694.73 365.13 C487.99 368, 281.26 367.04, 0.33 366.6 M694.97 366.17 C492.2 363.8, 288.88 364.44, -0.08 365.77 M0.92 367.13 C0.27 220.44, 0.09 75.59, 0.72 0.28 M-0.28 365.36 C0.72 272.91, 0.88 180.74, -0.38 0.19" stroke="#5f3dc4" stroke-width="2" fill="none"></path></g><g transform="translate(739.0935720355997 749.0593042689952) rotate(0 42.49999999999994 23)"><text x="0" y="32" font-family="Virgil, Segoe UI Emoji" font-size="36px" fill="#5f3dc4" text-anchor="start" style="white-space: pre;" direction="ltr">input</text></g><g stroke-linecap="round"><g transform="translate(1688.1351520825633 2181.5954721390212) rotate(0 71.86358510924208 0.3400671966301161)"><path d="M0.45 -0.92 C24.59 -0.68, 120.4 0.04, 144.49 0.26 M-0.77 1.22 C23.28 1.73, 119.55 1.53, 143.82 1.6" stroke="#5f3dc4" stroke-width="2" fill="none"></path></g></g><g transform="translate(1825.8916941432349 2119.420699403507) rotate(0 24 12.5)"><text x="0" y="18" font-family="Virgil, Segoe UI Emoji" font-size="20px" fill="#5f3dc4" text-anchor="start" style="white-space: pre;" direction="ltr">input</text></g><g stroke-linecap="round"><g transform="translate(2645.392928410741 2001.570567985489) rotate(0 64.14834666998627 1.4750165970217495)"><path d="M-1.01 0.77 C20.48 1.08, 107.57 1.4, 129.3 1.58 M0.67 0.12 C21.93 0.62, 106.85 2.35, 128.14 2.83" stroke="#5f3dc4" stroke-width="2" fill="none"></path></g></g><g stroke-linecap="round"><g transform="translate(2635.0173566110598 2091.497280144937) rotate(0 72.42051718490416 0.5456356461077121)"><path d="M-1.03 -0.73 C23.34 -0.48, 121.34 0.36, 145.87 0.48 M0.63 1.5 C24.86 1.99, 120.72 1.81, 144.87 1.67" stroke="#5f3dc4" stroke-width="2" fill="none"></path></g></g><g stroke-linecap="round"><g transform="translate(1816.978890049089 2210.8123017586063) rotate(0 61.46532539625173 -0.7325802436735103)"><path d="M0.3 -0.38 C20.9 -0.55, 103.34 -0.71, 123.93 -0.79 M-1 -1.62 C19.37 -1.7, 102.07 -0.08, 122.69 0.16" stroke="#5f3dc4" stroke-width="2" fill="none"></path></g></g><g stroke-linecap="round"><g transform="translate(1752.0295320718883 2169.6098561217427) rotate(0 32.43204440446061 -20.170160387740225)"><path d="M0.75 -0.04 C3.57 -5.33, 10.19 -25.93, 17.11 -32.6 C24.04 -39.26, 34.42 -39.02, 42.32 -40.03 C50.23 -41.05, 61.03 -38.84, 64.56 -38.68 M-0.31 -1.11 C2.42 -6.11, 9.78 -24.79, 16.73 -31.05 C23.68 -37.31, 33.29 -37.51, 41.36 -38.65 C49.44 -39.79, 61.14 -37.82, 65.18 -37.92" stroke="#5f3dc4" stroke-width="2" fill="none"></path></g></g><g stroke-linecap="round"><g transform="translate(1875.6372549651355 2188.5980615870394) rotate(76.55339990560647 31.72681357119177 -20.30569000133255)"><path d="M-0.05 -0.31 C2.69 -5.62, 9.75 -26.31, 16.91 -32.94 C24.07 -39.57, 34.9 -39.17, 42.91 -40.1 C50.92 -41.02, 61.47 -38.62, 64.99 -38.47 M-1.54 -1.51 C1.09 -6.56, 9.13 -25.36, 16.42 -31.57 C23.72 -37.77, 34.63 -37.74, 42.25 -38.74 C49.88 -39.75, 58.78 -37.48, 62.17 -37.59" stroke="#5f3dc4" stroke-width="2" fill="none"></path></g></g><g stroke-linecap="round"><g transform="translate(1693.0731304772344 2218.063671501943) rotate(0 253.213342945117 73.6333902729591)"><path d="M0.94 -0.02 C14.33 7.09, 46.69 35, 80.63 42.23 C114.58 49.47, 142.2 40.79, 204.61 43.4 C267.03 46.02, 404.81 40.44, 455.12 57.93 C505.43 75.42, 497.86 132.97, 506.46 148.35 M-0.03 -1.08 C13.27 5.71, 46.29 32.74, 80.25 40.36 C114.21 47.99, 141.28 41.54, 203.72 44.68 C266.15 47.82, 404.58 41.92, 454.86 59.19 C505.14 76.45, 497.03 133.18, 505.39 148.26" stroke="#495057" stroke-width="2" fill="none"></path></g></g><g stroke-linecap="round"><g transform="translate(1535.3813087389913 2210.648543290463) rotate(0 136.14545190379522 -0.1430701099432099)"><path d="M0.16 -0.43 C45.62 -0.25, 227.79 -0.06, 273.51 0.16 M-1.22 -1.7 C44.03 -1.28, 226.71 0.75, 272.63 1.42" stroke="#495057" stroke-width="2" fill="none"></path></g></g><g transform="translate(2263.150884145418 850.4939370990952) rotate(347.6054327033073 223 68.49999999999994)"><text x="0" y="31.666666666666664" font-family="Virgil, Segoe UI Emoji" font-size="36px" fill="#e67700" text-anchor="start" style="white-space: pre;" direction="ltr">attempt to calculate a </text><text x="0" y="77.33333333333333" font-family="Virgil, Segoe UI Emoji" font-size="36px" fill="#e67700" text-anchor="start" style="white-space: pre;" direction="ltr">"manhattan area" </text><text x="0" y="123" font-family="Virgil, Segoe UI Emoji" font-size="36px" fill="#e67700" text-anchor="start" style="white-space: pre;" direction="ltr">around each sensor</text></g><g stroke-linecap="round" transform="translate(608.0908349565161 3053.11388597321) rotate(0 20.59084651260804 19.507331734128456)"><path d="M23.15 -0.61 C27.38 -0.23, 32.43 3.94, 35.31 7.05 C38.18 10.16, 40.23 14.07, 40.42 18.05 C40.62 22.03, 39.09 27.39, 36.48 30.94 C33.88 34.48, 29.14 38.42, 24.81 39.32 C20.47 40.21, 14.43 38.22, 10.46 36.29 C6.49 34.37, 2.62 31.53, 0.98 27.78 C-0.65 24.03, -0.79 17.75, 0.66 13.79 C2.11 9.84, 5.34 6.12, 9.7 4.07 C14.06 2.01, 23.57 1.78, 26.83 1.45 C30.09 1.11, 29.34 1.92, 29.25 2.07 M18.32 0.56 C22.52 -0.11, 26.68 1.32, 30.37 3.49 C34.06 5.66, 39.05 9.91, 40.48 13.58 C41.91 17.24, 40.52 21.53, 38.96 25.49 C37.4 29.45, 34.98 35.34, 31.14 37.33 C27.29 39.33, 20.39 38.23, 15.91 37.47 C11.42 36.71, 6.78 36.01, 4.22 32.77 C1.67 29.52, 0.3 22.4, 0.58 17.98 C0.86 13.57, 3.33 9.05, 5.92 6.29 C8.51 3.54, 14.13 2.34, 16.11 1.46 C18.1 0.58, 17.82 0.86, 17.84 0.99" stroke="#5c940d" stroke-width="2" fill="none"></path></g><g transform="translate(640.388926514648 3007.9161812937537) rotate(347.91177796558975 91 12.5)"><text x="0" y="18" font-family="Virgil, Segoe UI Emoji" font-size="20px" fill="#5c940d" text-anchor="start" style="white-space: pre;" direction="ltr">solution to sample</text></g><g transform="translate(1330.559432169346 2587.6922751720263) rotate(0 386.0000000000001 18)"><text x="0" y="25" font-family="Virgil, Segoe UI Emoji" font-size="28px" fill="#c92a2a" text-anchor="start" style="white-space: pre;" direction="ltr">O(n*m), number of points in row times number of sensors</text></g><g transform="translate(2152.10050566645 2521.9884429599774) rotate(353.4265164881963 402.67182086609 36.82485836946353)"><text x="0" y="51.649716738927" font-family="Virgil, Segoe UI Emoji" font-size="57.63890875220375px" fill="#c92a2a" text-anchor="start" style="white-space: pre;" direction="ltr">=&gt; There's more to this one</text></g><g transform="translate(1594.3024593691644 1762.9753223566877) rotate(0 199 23)"><text x="0" y="32" font-family="Virgil, Segoe UI Emoji" font-size="36px" fill="#c92a2a" text-anchor="start" style="white-space: pre;" direction="ltr">src/day-15/part-one.ts</text></g></svg>